<svg xmlns="http://www.w3.org/2000/svg" class="graphdiagram" viewBox="-2424.7247379720757 -736.9290901579003 2222.195812424856 1056.4025099853745"><g class="layer relationships"><g class="related-pair"><g class="relationship" transform="translate(-1296,-471.42) rotate(90)"><path class="relationship" d="M 89.00909015790026 4 L 308.2080725596148 4 L 308.2080725596148 16 L 340.2080725596148 0 L 308.2080725596148 -16 L 308.2080725596148 -4 L 89.00909015790026 -4 Z" fill="rgb(0, 0, 0)" stroke="rgb(51, 51, 51)" stroke-width="0px"/><text class="type" text-anchor="middle" baseline-shift="30%" alignment-baseline="alphabetic" x="198.60858135875753" y="0" font-size="50px" font-family="&quot;Gill Sans&quot;, &quot;Gill Sans MT&quot;, Calibri, sans-serif">PLAYS</text></g></g><g class="related-pair"><g class="relationship" transform="translate(-1296,-471.42) rotate(141.26520055748983)"><path class="relationship" d="M 87.07726038220098,-18.872436383985743 L 88.41906504204947,-10.985766601700647 A 1513.6092862524256 1513.6092862524256 0 0 1 559.9485259996483,-16.6964763130509 L 558.2229145324163,-4.8211967346932845 L 592.1911420310126,-16.053272259884835 L 562.8245451117016,-36.48860894364694 L 561.0989336444696,-24.613329365289317 A 1521.6092862524256 1521.6092862524256 0 0 0 87.07726038220098,-18.872436383985743" fill="rgb(0, 0, 0)" stroke="rgb(51, 51, 51)" stroke-width="0px"/><text class="type" text-anchor="middle" baseline-shift="30%" alignment-baseline="alphabetic" x="-342.2900642274822" y="36.427975344986635" font-size="50px" font-family="&quot;Gill Sans&quot;, &quot;Gill Sans MT&quot;, Calibri, sans-serif" transform="rotate(180)">LIKES</text></g><g class="relationship" transform="translate(-1296,-471.42) rotate(141.26520055748983)"><path class="relationship" d="M 87.07726038220098,18.872436383985743 L 88.41906504204947,10.985766601700647 A 1513.6092862524256 1513.6092862524256 0 0 0 559.9485259996483,16.6964763130509 L 558.2229145324163,4.8211967346932845 L 592.1911420310126,16.053272259884835 L 562.8245451117016,36.48860894364694 L 561.0989336444696,24.613329365289317 A 1521.6092862524256 1521.6092862524256 0 0 1 87.07726038220098,18.872436383985743" fill="rgb(0, 0, 0)" stroke="rgb(51, 51, 51)" stroke-width="0px"/><text class="type" text-anchor="middle" baseline-shift="30%" alignment-baseline="alphabetic" transform="rotate(180)" x="-342.2900642274822" y="-36.427975344986635" font-size="50px" font-family="&quot;Gill Sans&quot;, &quot;Gill Sans MT&quot;, Calibri, sans-serif">MAKES</text></g></g><g class="related-pair"><g class="relationship" transform="translate(-1296,-471.42) rotate(180)"><path class="relationship" d="M 89.00909015790026 4 L 355.62010194076345 4 L 355.62010194076345 16 L 387.62010194076345 0 L 355.62010194076345 -16 L 355.62010194076345 -4 L 89.00909015790026 -4 Z" fill="rgb(0, 0, 0)" stroke="rgb(51, 51, 51)" stroke-width="0px"/><text class="type" text-anchor="middle" baseline-shift="30%" alignment-baseline="alphabetic" transform="rotate(180)" x="-222.31459604933187" y="0" font-size="50px" font-family="&quot;Gill Sans&quot;, &quot;Gill Sans MT&quot;, Calibri, sans-serif">MAKES</text></g></g><g class="related-pair"><g class="relationship" transform="translate(-1844.1151611328125,-471.42) rotate(90)"><path class="relationship" d="M 160.4950591920491 4 L 296.03452784113546 4 L 296.03452784113546 16 L 328.03452784113546 0 L 296.03452784113546 -16 L 296.03452784113546 -4 L 160.4950591920491 -4 Z" fill="rgb(0, 0, 0)" stroke="rgb(51, 51, 51)" stroke-width="0px"/><text class="type" text-anchor="middle" baseline-shift="30%" alignment-baseline="alphabetic" x="228.26479351659228" y="0" font-size="50px" font-family="&quot;Gill Sans&quot;, &quot;Gill Sans MT&quot;, Calibri, sans-serif">ON</text></g></g><g class="related-pair"><g class="relationship" transform="translate(-1844.1151611328125,-31.75010650634766) rotate(0)"><path class="relationship" d="M 111.6353656525169 4 L 416.65334019877497 4 L 416.65334019877497 16 L 448.65334019877497 0 L 416.65334019877497 -16 L 416.65334019877497 -4 L 111.6353656525169 -4 Z" fill="rgb(0, 0, 0)" stroke="rgb(51, 51, 51)" stroke-width="0px"/><text class="type" text-anchor="middle" baseline-shift="30%" alignment-baseline="alphabetic" x="264.14435292564593" y="0" font-size="50px" font-family="&quot;Gill Sans&quot;, &quot;Gill Sans MT&quot;, Calibri, sans-serif">ON</text></g></g><g class="related-pair"><g class="relationship" transform="translate(-1296,-471.42) rotate(32.7068546780149)"><path class="relationship" d="M 89.00909015790026 4 L 314.63415183763937 4 L 314.63415183763937 16 L 346.63415183763937 0 L 314.63415183763937 -16 L 314.63415183763937 -4 L 89.00909015790026 -4 Z" fill="rgb(0, 0, 0)" stroke="rgb(51, 51, 51)" stroke-width="0px"/><text class="type" text-anchor="middle" baseline-shift="30%" alignment-baseline="alphabetic" x="201.8216209977698" y="0" font-size="50px" font-family="&quot;Gill Sans&quot;, &quot;Gill Sans MT&quot;, Calibri, sans-serif">SENT</text></g></g><g class="related-pair"><g class="relationship" transform="translate(-887.7575610351563,-209.2640364074707) rotate(-29.10055798901717)"><path class="relationship" d="M 138.53348745736938 4 L 418.02505639150127 4 L 418.02505639150127 16 L 450.02505639150127 0 L 418.02505639150127 -16 L 418.02505639150127 -4 L 138.53348745736938 -4 Z" fill="rgb(0, 0, 0)" stroke="rgb(51, 51, 51)" stroke-width="0px"/><text class="type" text-anchor="middle" baseline-shift="30%" alignment-baseline="alphabetic" x="278.2792719244353" y="0" font-size="50px" font-family="&quot;Gill Sans&quot;, &quot;Gill Sans MT&quot;, Calibri, sans-serif">TO</text></g></g><g class="related-pair"><g class="relationship" transform="translate(-1296,-471.42) rotate(0)"><path class="relationship" d="M 89.00909015790026 4 L 758.2238602815529 4 L 758.2238602815529 16 L 790.2238602815529 0 L 758.2238602815529 -16 L 758.2238602815529 -4 L 89.00909015790026 -4 Z" fill="rgb(0, 0, 0)" stroke="rgb(51, 51, 51)" stroke-width="0px"/><text class="type" text-anchor="middle" baseline-shift="30%" alignment-baseline="alphabetic" x="423.61647521972657" y="0" font-size="50px" font-family="&quot;Gill Sans&quot;, &quot;Gill Sans MT&quot;, Calibri, sans-serif">FOLLOWS</text></g></g></g><g class="layer nodes"><circle class="node node-id-0" r="74.00909015790026" fill="rgb(255, 255, 255)" stroke="rgb(0, 0, 0)" stroke-width="8px" cx="-1296" cy="-471.42"/><circle class="node node-id-4" r="145.4950591920491" fill="rgb(255, 255, 255)" stroke="rgb(0, 0, 0)" stroke-width="8px" cx="-1844.1151611328125" cy="-471.42"/><circle class="node node-id-5" r="123.53348745736938" fill="rgb(255, 255, 255)" stroke="rgb(0, 0, 0)" stroke-width="8px" cx="-887.7575610351563" cy="-209.2640364074707"/><g class="caption"><text class="caption node" text-anchor="middle" alignment-baseline="central" x="-1296" y="-471.42" fill="rgb(51, 51, 51)" font-size="50px" font-family="&quot;Gill Sans&quot;, &quot;Gill Sans MT&quot;, Calibri, sans-serif">User</text></g><g class="caption"><text class="caption node" text-anchor="middle" alignment-baseline="central" x="-1844.1151611328125" y="-471.42" fill="rgb(51, 51, 51)" font-size="50px" font-family="&quot;Gill Sans&quot;, &quot;Gill Sans MT&quot;, Calibri, sans-serif">COMMENT</text></g><g class="caption"><text class="caption node" text-anchor="middle" alignment-baseline="central" x="-887.7575610351563" y="-209.2640364074707" fill="rgb(51, 51, 51)" font-size="50px" font-family="&quot;Gill Sans&quot;, &quot;Gill Sans MT&quot;, Calibri, sans-serif">MESSAGE</text></g><circle class="node node-id-5" r="74.00909015790026" fill="rgb(255, 255, 255)" stroke="rgb(0, 0, 0)" stroke-width="8px" cx="-416.7670495605469" cy="-471.42"/><g class="caption"><text class="caption node" text-anchor="middle" alignment-baseline="central" x="-416.7670495605469" y="-471.42" fill="rgb(51, 51, 51)" font-size="50px" font-family="&quot;Gill Sans&quot;, &quot;Gill Sans MT&quot;, Calibri, sans-serif">User</text></g><circle class="node node-id-5" r="84.46182093403758" fill="rgb(255, 255, 255)" stroke="rgb(0, 0, 0)" stroke-width="8px" cx="-1296" cy="-31.75010650634766"/><g class="caption"><text class="caption node" text-anchor="middle" alignment-baseline="central" x="-1296" y="-31.75010650634766" fill="rgb(51, 51, 51)" font-size="50px" font-family="&quot;Gill Sans&quot;, &quot;Gill Sans MT&quot;, Calibri, sans-serif">Game</text></g><circle class="node node-id-5" r="96.6353656525169" fill="rgb(255, 255, 255)" stroke="rgb(0, 0, 0)" stroke-width="8px" cx="-1844.1151611328125" cy="-31.75010650634766"/><g class="caption"><text class="caption node" text-anchor="middle" alignment-baseline="central" x="-1844.1151611328125" y="-31.75010650634766" fill="rgb(51, 51, 51)" font-size="50px" font-family="&quot;Gill Sans&quot;, &quot;Gill Sans MT&quot;, Calibri, sans-serif">Review</text></g></g><g class="layer properties"><g class="speech-bubble node-speech-bubble" transform="translate(-1296,-545.4290901579003) "><path class="speech-bubble-outline" transform="scale(1,-1) " d="M 0 0 L -10 20 L -167.5 20 A 10 10 0 0 0 -177.5 30 L -177.5 180 A 10 10 0 0 0 -167.5 190 L 167.5 190 A 10 10 0 0 0 177.5 180 L 177.5 30 A 10 10 0 0 0 167.5 20 L 10 20 Z" fill="rgb(255, 255, 255)" stroke="rgb(0, 0, 0)" stroke-width="3px"/><text class="speech-bubble-content property-key" x="54.5" y="-155" alignment-baseline="central" text-anchor="end" font-size="50px" font-family="&quot;Gill Sans&quot;, &quot;Gill Sans MT&quot;, Calibri, sans-serif" xml:space="preserve">username: </text><text class="speech-bubble-content property-value" x="54.5" y="-155" alignment-baseline="central" font-size="50px" font-family="&quot;Gill Sans&quot;, &quot;Gill Sans MT&quot;, Calibri, sans-serif">string</text><text class="speech-bubble-content property-key" x="54.5" y="-105" alignment-baseline="central" text-anchor="end" font-size="50px" font-family="&quot;Gill Sans&quot;, &quot;Gill Sans MT&quot;, Calibri, sans-serif" xml:space="preserve">email: </text><text class="speech-bubble-content property-value" x="54.5" y="-105" alignment-baseline="central" font-size="50px" font-family="&quot;Gill Sans&quot;, &quot;Gill Sans MT&quot;, Calibri, sans-serif">string</text><text class="speech-bubble-content property-key" x="54.5" y="-55" alignment-baseline="central" text-anchor="end" font-size="50px" font-family="&quot;Gill Sans&quot;, &quot;Gill Sans MT&quot;, Calibri, sans-serif" xml:space="preserve">password: </text><text class="speech-bubble-content property-value" x="54.5" y="-55" alignment-baseline="central" font-size="50px" font-family="&quot;Gill Sans&quot;, &quot;Gill Sans MT&quot;, Calibri, sans-serif">string</text></g><g class="speech-bubble node-speech-bubble" transform="translate(-1946.9957041166485,-574.3005429838361) "><path class="speech-bubble-outline" transform="scale(-1,-1) " d="M 0 0 L 30 20 L 330 20 A 10 10 0 0 1 340 30 L 340 80 A 10 10 0 0 1 330 90 L 30 90 A 10 10 0 0 1 20 80 L 20 30 Z" fill="rgb(255, 255, 255)" stroke="rgb(0, 0, 0)" stroke-width="3px"/><text class="speech-bubble-content property-key" x="-147" y="-55" alignment-baseline="central" text-anchor="end" font-size="50px" font-family="&quot;Gill Sans&quot;, &quot;Gill Sans MT&quot;, Calibri, sans-serif" xml:space="preserve">content: </text><text class="speech-bubble-content property-value" x="-147" y="-55" alignment-baseline="central" font-size="50px" font-family="&quot;Gill Sans&quot;, &quot;Gill Sans MT&quot;, Calibri, sans-serif">String</text></g><g class="speech-bubble node-speech-bubble" transform="translate(-887.7575610351563,-85.73054895010134) "><path class="speech-bubble-outline" transform="scale(1,1) " d="M 0 0 L -10 20 L -148 20 A 10 10 0 0 0 -158 30 L -158 80 A 10 10 0 0 0 -148 90 L 148 90 A 10 10 0 0 0 158 80 L 158 30 A 10 10 0 0 0 148 20 L 10 20 Z" fill="rgb(255, 255, 255)" stroke="rgb(0, 0, 0)" stroke-width="3px"/><text class="speech-bubble-content property-key" x="35" y="55" alignment-baseline="central" text-anchor="end" font-size="50px" font-family="&quot;Gill Sans&quot;, &quot;Gill Sans MT&quot;, Calibri, sans-serif" xml:space="preserve">content: </text><text class="speech-bubble-content property-value" x="35" y="55" alignment-baseline="central" font-size="50px" font-family="&quot;Gill Sans&quot;, &quot;Gill Sans MT&quot;, Calibri, sans-serif">string</text></g><g class="speech-bubble node-speech-bubble" transform="translate(-1236.2764736661782,27.973419827474213) "><path class="speech-bubble-outline" transform="scale(1,1) " d="M 0 0 L 30 20 L 395 20 A 10 10 0 0 1 405 30 L 405 280 A 10 10 0 0 1 395 290 L 30 290 A 10 10 0 0 1 20 280 L 20 30 Z" fill="rgb(255, 255, 255)" stroke="rgb(0, 0, 0)" stroke-width="3px"/><text class="speech-bubble-content property-key" x="282" y="55" alignment-baseline="central" text-anchor="end" font-size="50px" font-family="&quot;Gill Sans&quot;, &quot;Gill Sans MT&quot;, Calibri, sans-serif" xml:space="preserve">title: </text><text class="speech-bubble-content property-key" x="282" y="105" alignment-baseline="central" text-anchor="end" font-size="50px" font-family="&quot;Gill Sans&quot;, &quot;Gill Sans MT&quot;, Calibri, sans-serif" xml:space="preserve">genre: </text><text class="speech-bubble-content property-value" x="282" y="55" alignment-baseline="central" font-size="50px" font-family="&quot;Gill Sans&quot;, &quot;Gill Sans MT&quot;, Calibri, sans-serif">string</text><text class="speech-bubble-content property-value" x="282" y="105" alignment-baseline="central" font-size="50px" font-family="&quot;Gill Sans&quot;, &quot;Gill Sans MT&quot;, Calibri, sans-serif">string</text><text class="speech-bubble-content property-key" x="282" y="155" alignment-baseline="central" text-anchor="end" font-size="50px" font-family="&quot;Gill Sans&quot;, &quot;Gill Sans MT&quot;, Calibri, sans-serif" xml:space="preserve">description: </text><text class="speech-bubble-content property-key" x="282" y="205" alignment-baseline="central" text-anchor="end" font-size="50px" font-family="&quot;Gill Sans&quot;, &quot;Gill Sans MT&quot;, Calibri, sans-serif" xml:space="preserve">developer: </text><text class="speech-bubble-content property-key" x="282" y="255" alignment-baseline="central" text-anchor="end" font-size="50px" font-family="&quot;Gill Sans&quot;, &quot;Gill Sans MT&quot;, Calibri, sans-serif" xml:space="preserve">publisher: </text><text class="speech-bubble-content property-value" x="282" y="155" alignment-baseline="central" font-size="50px" font-family="&quot;Gill Sans&quot;, &quot;Gill Sans MT&quot;, Calibri, sans-serif">string</text><text class="speech-bubble-content property-value" x="282" y="205" alignment-baseline="central" font-size="50px" font-family="&quot;Gill Sans&quot;, &quot;Gill Sans MT&quot;, Calibri, sans-serif">string</text><text class="speech-bubble-content property-value" x="282" y="255" alignment-baseline="central" font-size="50px" font-family="&quot;Gill Sans&quot;, &quot;Gill Sans MT&quot;, Calibri, sans-serif">string</text></g><g class="speech-bubble node-speech-bubble" transform="translate(-1912.446683488149,36.58141584898861) "><path class="speech-bubble-outline" transform="scale(-1,1) " d="M 0 0 L 30 20 L 326 20 A 10 10 0 0 1 336 30 L 336 130 A 10 10 0 0 1 326 140 L 30 140 A 10 10 0 0 1 20 130 L 20 30 Z" fill="rgb(255, 255, 255)" stroke="rgb(0, 0, 0)" stroke-width="3px"/><text class="speech-bubble-content property-key" x="-143" y="55" alignment-baseline="central" text-anchor="end" font-size="50px" font-family="&quot;Gill Sans&quot;, &quot;Gill Sans MT&quot;, Calibri, sans-serif" xml:space="preserve">score: </text><text class="speech-bubble-content property-key" x="-143" y="105" alignment-baseline="central" text-anchor="end" font-size="50px" font-family="&quot;Gill Sans&quot;, &quot;Gill Sans MT&quot;, Calibri, sans-serif" xml:space="preserve">content: </text><text class="speech-bubble-content property-value" x="-143" y="55" alignment-baseline="central" font-size="50px" font-family="&quot;Gill Sans&quot;, &quot;Gill Sans MT&quot;, Calibri, sans-serif">int</text><text class="speech-bubble-content property-value" x="-143" y="105" alignment-baseline="central" font-size="50px" font-family="&quot;Gill Sans&quot;, &quot;Gill Sans MT&quot;, Calibri, sans-serif">string</text></g></g><g class="layer overlay"><circle class="node overlay" r="78.00909015790026" stroke="none" fill="rgba(255, 255, 255, 0)" cx="-1296" cy="-471.42"/><circle class="node overlay" r="149.4950591920491" stroke="none" fill="rgba(255, 255, 255, 0)" cx="-1844.1151611328125" cy="-471.42"/><circle class="node overlay" r="127.53348745736938" stroke="none" fill="rgba(255, 255, 255, 0)" cx="-887.7575610351563" cy="-209.2640364074707"/><circle class="node ring" r="83.00909015790026" fill="none" stroke="rgba(255, 255, 255, 0)" stroke-width="10px" cx="-1296" cy="-471.42"/><circle class="node ring" r="154.4950591920491" fill="none" stroke="rgba(255, 255, 255, 0)" stroke-width="10px" cx="-1844.1151611328125" cy="-471.42"/><circle class="node ring" r="132.53348745736938" fill="none" stroke="rgba(255, 255, 255, 0)" stroke-width="10px" cx="-887.7575610351563" cy="-209.2640364074707"/><path class="relationship overlay" fill="rgba(255, 255, 255, 0)" stroke="rgba(255, 255, 255, 0)" stroke-width="10px" transform="translate(-1296,-471.42) rotate(90)" d="M 89.00909015790026 4 L 308.2080725596148 4 L 308.2080725596148 16 L 340.2080725596148 0 L 308.2080725596148 -16 L 308.2080725596148 -4 L 89.00909015790026 -4 Z"/><path class="relationship overlay" fill="rgba(255, 255, 255, 0)" stroke="rgba(255, 255, 255, 0)" stroke-width="10px" transform="translate(-1296,-471.42) rotate(141.26520055748983)" d="M 87.07726038220098,-18.872436383985743 L 88.41906504204947,-10.985766601700647 A 1513.6092862524256 1513.6092862524256 0 0 1 559.9485259996483,-16.6964763130509 L 558.2229145324163,-4.8211967346932845 L 592.1911420310126,-16.053272259884835 L 562.8245451117016,-36.48860894364694 L 561.0989336444696,-24.613329365289317 A 1521.6092862524256 1521.6092862524256 0 0 0 87.07726038220098,-18.872436383985743"/><circle class="node overlay" r="78.00909015790026" stroke="none" fill="rgba(255, 255, 255, 0)" cx="-416.7670495605469" cy="-471.42"/><circle class="node ring" r="83.00909015790026" fill="none" stroke="rgba(255, 255, 255, 0)" stroke-width="10px" cx="-416.7670495605469" cy="-471.42"/><path class="relationship overlay" fill="rgba(255, 255, 255, 0)" stroke="rgba(255, 255, 255, 0)" stroke-width="10px" transform="translate(-1296,-471.42) rotate(141.26520055748983)" d="M 87.07726038220098,18.872436383985743 L 88.41906504204947,10.985766601700647 A 1513.6092862524256 1513.6092862524256 0 0 0 559.9485259996483,16.6964763130509 L 558.2229145324163,4.8211967346932845 L 592.1911420310126,16.053272259884835 L 562.8245451117016,36.48860894364694 L 561.0989336444696,24.613329365289317 A 1521.6092862524256 1521.6092862524256 0 0 1 87.07726038220098,18.872436383985743"/><path class="relationship overlay" fill="rgba(255, 255, 255, 0)" stroke="rgba(255, 255, 255, 0)" stroke-width="10px" transform="translate(-1296,-471.42) rotate(180)" d="M 89.00909015790026 4 L 355.62010194076345 4 L 355.62010194076345 16 L 387.62010194076345 0 L 355.62010194076345 -16 L 355.62010194076345 -4 L 89.00909015790026 -4 Z"/><path class="relationship overlay" fill="rgba(255, 255, 255, 0)" stroke="rgba(255, 255, 255, 0)" stroke-width="10px" transform="translate(-1844.1151611328125,-471.42) rotate(90)" d="M 160.4950591920491 4 L 296.03452784113546 4 L 296.03452784113546 16 L 328.03452784113546 0 L 296.03452784113546 -16 L 296.03452784113546 -4 L 160.4950591920491 -4 Z"/><path class="relationship overlay" fill="rgba(255, 255, 255, 0)" stroke="rgba(255, 255, 255, 0)" stroke-width="10px" transform="translate(-1844.1151611328125,-31.75010650634766) rotate(0)" d="M 111.6353656525169 4 L 416.65334019877497 4 L 416.65334019877497 16 L 448.65334019877497 0 L 416.65334019877497 -16 L 416.65334019877497 -4 L 111.6353656525169 -4 Z"/><circle class="node overlay" r="88.46182093403758" stroke="none" fill="rgba(255, 255, 255, 0)" cx="-1296" cy="-31.75010650634766"/><circle class="node ring" r="93.46182093403758" fill="none" stroke="rgba(255, 255, 255, 0)" stroke-width="10px" cx="-1296" cy="-31.75010650634766"/><path class="relationship overlay" fill="rgba(255, 255, 255, 0)" stroke="rgba(255, 255, 255, 0)" stroke-width="10px" transform="translate(-1296,-471.42) rotate(32.7068546780149)" d="M 89.00909015790026 4 L 314.63415183763937 4 L 314.63415183763937 16 L 346.63415183763937 0 L 314.63415183763937 -16 L 314.63415183763937 -4 L 89.00909015790026 -4 Z"/><circle class="node overlay" r="100.6353656525169" stroke="none" fill="rgba(255, 255, 255, 0)" cx="-1844.1151611328125" cy="-31.75010650634766"/><circle class="node ring" r="105.6353656525169" fill="none" stroke="rgba(255, 255, 255, 0)" stroke-width="10px" cx="-1844.1151611328125" cy="-31.75010650634766"/><path class="relationship overlay" fill="rgba(255, 255, 255, 0)" stroke="rgba(255, 255, 255, 0)" stroke-width="10px" transform="translate(-887.7575610351563,-209.2640364074707) rotate(-29.10055798901717)" d="M 138.53348745736938 4 L 418.02505639150127 4 L 418.02505639150127 16 L 450.02505639150127 0 L 418.02505639150127 -16 L 418.02505639150127 -4 L 138.53348745736938 -4 Z"/><path class="relationship overlay" fill="rgba(255, 255, 255, 0)" stroke="rgba(255, 255, 255, 0)" stroke-width="10px" transform="translate(-1296,-471.42) rotate(0)" d="M 89.00909015790026 4 L 758.2238602815529 4 L 758.2238602815529 16 L 790.2238602815529 0 L 758.2238602815529 -16 L 758.2238602815529 -4 L 89.00909015790026 -4 Z"/></g></svg>