<svg xmlns="http://www.w3.org/2000/svg" class="graphdiagram" viewBox="-2507.890453585819 -818.5919052946075 2560 1292"><g class="layer relationships"><g class="related-pair"><g class="relationship" transform="translate(-1200,-436.5) rotate(90)"><path class="relationship" d="M 89.00909015790026 4 L 310.6399323008257 4 L 310.6399323008257 16 L 342.6399323008257 0 L 310.6399323008257 -16 L 310.6399323008257 -4 L 89.00909015790026 -4 Z" fill="rgb(0, 0, 0)" stroke="rgb(51, 51, 51)" stroke-width="0px"/><text class="type" text-anchor="middle" baseline-shift="30%" alignment-baseline="alphabetic" x="199.824511229363" y="0" font-size="50px" font-family="&quot;Gill Sans&quot;, &quot;Gill Sans MT&quot;, Calibri, sans-serif">PLAYS</text></g></g><g class="related-pair"><g class="relationship" transform="translate(-1200,-436.5) rotate(138.9404747060561)"><path class="relationship" d="M 87.07726038220098,-18.872436383985743 L 88.41906504204947,-10.985766601700647 A 1423.0131473778779 1423.0131473778779 0 0 1 530.3368091831591,-16.555747748701325 L 528.6229076454808,-4.678772480597747 L 562.5800437439947,-15.94433540426045 L 533.1933117459562,-36.35070652887396 L 531.479410208278,-24.473731260770375 A 1431.0131473778779 1431.0131473778779 0 0 0 87.07726038220098,-18.872436383985743" fill="rgb(0, 0, 0)" stroke="rgb(51, 51, 51)" stroke-width="0px"/><text class="type" text-anchor="middle" baseline-shift="30%" alignment-baseline="alphabetic" transform="rotate(180)" x="-327.09477406421354" y="35.14456532713871" font-size="50px" font-family="&quot;Gill Sans&quot;, &quot;Gill Sans MT&quot;, Calibri, sans-serif">LIKES</text></g><g class="relationship" transform="translate(-1200,-436.5) rotate(138.9404747060561)"><path class="relationship" d="M 87.07726038220098,18.872436383985743 L 88.41906504204947,10.985766601700647 A 1423.0131473778779 1423.0131473778779 0 0 0 530.3368091831591,16.555747748701325 L 528.6229076454808,4.678772480597747 L 562.5800437439947,15.94433540426045 L 533.1933117459562,36.35070652887396 L 531.479410208278,24.473731260770375 A 1431.0131473778779 1431.0131473778779 0 0 1 87.07726038220098,18.872436383985743" fill="rgb(0, 0, 0)" stroke="rgb(51, 51, 51)" stroke-width="0px"/><text class="type" text-anchor="middle" baseline-shift="30%" alignment-baseline="alphabetic" transform="rotate(180)" x="-327.09477406421354" y="-35.14456532713871" font-size="50px" font-family="&quot;Gill Sans&quot;, &quot;Gill Sans MT&quot;, Calibri, sans-serif">MAKES</text></g></g><g class="related-pair"><g class="relationship" transform="translate(-1200,-436.5) rotate(180)"><path class="relationship" d="M 89.00909015790026 4 L 315.0189788938884 4 L 315.0189788938884 16 L 347.0189788938884 0 L 315.0189788938884 -16 L 315.0189788938884 -4 L 89.00909015790026 -4 Z" fill="rgb(0, 0, 0)" stroke="rgb(51, 51, 51)" stroke-width="0px"/><text class="type" text-anchor="middle" baseline-shift="30%" alignment-baseline="alphabetic" transform="rotate(180)" x="-202.01403452589432" y="0" font-size="50px" font-family="&quot;Gill Sans&quot;, &quot;Gill Sans MT&quot;, Calibri, sans-serif">MAKES</text></g></g><g class="related-pair"><g class="relationship" transform="translate(-1707.5140380859375,-436.5) rotate(90)"><path class="relationship" d="M 160.4950591920491 4 L 298.4663875823464 4 L 298.4663875823464 16 L 330.4663875823464 0 L 298.4663875823464 -16 L 298.4663875823464 -4 L 160.4950591920491 -4 Z" fill="rgb(0, 0, 0)" stroke="rgb(51, 51, 51)" stroke-width="0px"/><text class="type" text-anchor="middle" baseline-shift="30%" alignment-baseline="alphabetic" x="229.48072338719774" y="0" font-size="50px" font-family="&quot;Gill Sans&quot;, &quot;Gill Sans MT&quot;, Calibri, sans-serif">ON</text></g></g><g class="related-pair"><g class="relationship" transform="translate(-1707.5140380859375,5.601753234863281) rotate(0)"><path class="relationship" d="M 111.6353656525169 4 L 376.0522171518999 4 L 376.0522171518999 16 L 408.0522171518999 0 L 376.0522171518999 -16 L 376.0522171518999 -4 L 111.6353656525169 -4 Z" fill="rgb(0, 0, 0)" stroke="rgb(51, 51, 51)" stroke-width="0px"/><text class="type" text-anchor="middle" baseline-shift="30%" alignment-baseline="alphabetic" x="243.8437914022084" y="0" font-size="50px" font-family="&quot;Gill Sans&quot;, &quot;Gill Sans MT&quot;, Calibri, sans-serif">ON</text></g></g><g class="related-pair"><g class="relationship" transform="translate(-1200,-436.5) rotate(32.7068546780149)"><path class="relationship" d="M 89.00909015790026 4 L 278.69580818615725 4 L 278.69580818615725 16 L 310.69580818615725 0 L 278.69580818615725 -16 L 278.69580818615725 -4 L 89.00909015790026 -4 Z" fill="rgb(0, 0, 0)" stroke="rgb(51, 51, 51)" stroke-width="0px"/><text class="type" text-anchor="middle" baseline-shift="30%" alignment-baseline="alphabetic" x="183.85244917202874" y="0" font-size="50px" font-family="&quot;Gill Sans&quot;, &quot;Gill Sans MT&quot;, Calibri, sans-serif">SENT</text></g></g><g class="related-pair"><g class="relationship" transform="translate(-821.9977416992188,-193.76299667358398) rotate(-29.10055798901717)"><path class="relationship" d="M 138.53348745736938 4 L 378.0966010915456 4 L 378.0966010915456 16 L 410.0966010915456 0 L 378.0966010915456 -16 L 378.0966010915456 -4 L 138.53348745736938 -4 Z" fill="rgb(0, 0, 0)" stroke="rgb(51, 51, 51)" stroke-width="0px"/><text class="type" text-anchor="middle" baseline-shift="30%" alignment-baseline="alphabetic" x="258.3150442744575" y="0" font-size="50px" font-family="&quot;Gill Sans&quot;, &quot;Gill Sans MT&quot;, Calibri, sans-serif">TO</text></g></g><g class="related-pair"><g class="relationship" transform="translate(-1200,-436.5) rotate(0)"><path class="relationship" d="M 89.00909015790026 4 L 693.0954935823341 4 L 693.0954935823341 16 L 725.0954935823341 0 L 693.0954935823341 -16 L 693.0954935823341 -4 L 89.00909015790026 -4 Z" fill="rgb(0, 0, 0)" stroke="rgb(51, 51, 51)" stroke-width="0px"/><text class="type" text-anchor="middle" baseline-shift="30%" alignment-baseline="alphabetic" x="391.0522918701172" y="0" font-size="50px" font-family="&quot;Gill Sans&quot;, &quot;Gill Sans MT&quot;, Calibri, sans-serif">FOLLOWS</text></g></g></g><g class="layer nodes"><circle class="node node-id-0" r="74.00909015790026" fill="rgb(255, 255, 255)" stroke="rgb(0, 0, 0)" stroke-width="8px" cx="-1200" cy="-436.5"/><circle class="node node-id-1" r="145.4950591920491" fill="rgb(255, 255, 255)" stroke="rgb(0, 0, 0)" stroke-width="8px" cx="-1707.5140380859375" cy="-436.5"/><circle class="node node-id-2" r="123.53348745736938" fill="rgb(255, 255, 255)" stroke="rgb(0, 0, 0)" stroke-width="8px" cx="-821.9977416992188" cy="-193.76299667358398"/><circle class="node node-id-3" r="74.00909015790026" fill="rgb(255, 255, 255)" stroke="rgb(0, 0, 0)" stroke-width="8px" cx="-385.8954162597656" cy="-436.5"/><circle class="node node-id-4" r="84.46182093403758" fill="rgb(255, 255, 255)" stroke="rgb(0, 0, 0)" stroke-width="8px" cx="-1200" cy="5.601753234863281"/><circle class="node node-id-5" r="96.6353656525169" fill="rgb(255, 255, 255)" stroke="rgb(0, 0, 0)" stroke-width="8px" cx="-1707.5140380859375" cy="5.601753234863281"/><g class="caption"><text class="caption node" text-anchor="middle" alignment-baseline="central" x="-1200" y="-436.5" fill="rgb(51, 51, 51)" font-size="50px" font-family="&quot;Gill Sans&quot;, &quot;Gill Sans MT&quot;, Calibri, sans-serif">User</text></g><g class="caption"><text class="caption node" text-anchor="middle" alignment-baseline="central" x="-1707.5140380859375" y="-436.5" fill="rgb(51, 51, 51)" font-size="50px" font-family="&quot;Gill Sans&quot;, &quot;Gill Sans MT&quot;, Calibri, sans-serif">COMMENT</text></g><g class="caption"><text class="caption node" text-anchor="middle" alignment-baseline="central" x="-821.9977416992188" y="-193.76299667358398" fill="rgb(51, 51, 51)" font-size="50px" font-family="&quot;Gill Sans&quot;, &quot;Gill Sans MT&quot;, Calibri, sans-serif">MESSAGE</text></g><g class="caption"><text class="caption node" text-anchor="middle" alignment-baseline="central" x="-385.8954162597656" y="-436.5" fill="rgb(51, 51, 51)" font-size="50px" font-family="&quot;Gill Sans&quot;, &quot;Gill Sans MT&quot;, Calibri, sans-serif">User</text></g><g class="caption"><text class="caption node" text-anchor="middle" alignment-baseline="central" x="-1200" y="5.601753234863281" fill="rgb(51, 51, 51)" font-size="50px" font-family="&quot;Gill Sans&quot;, &quot;Gill Sans MT&quot;, Calibri, sans-serif">Game</text></g><g class="caption"><text class="caption node" text-anchor="middle" alignment-baseline="central" x="-1707.5140380859375" y="5.601753234863281" fill="rgb(51, 51, 51)" font-size="50px" font-family="&quot;Gill Sans&quot;, &quot;Gill Sans MT&quot;, Calibri, sans-serif">Review</text></g></g><g class="layer properties"><g class="speech-bubble node-speech-bubble" transform="translate(-1200,-510.50909015790023) "><path class="speech-bubble-outline" transform="scale(1,-1) " d="M 0 0 L -10 20 L -167.5 20 A 10 10 0 0 0 -177.5 30 L -177.5 180 A 10 10 0 0 0 -167.5 190 L 167.5 190 A 10 10 0 0 0 177.5 180 L 177.5 30 A 10 10 0 0 0 167.5 20 L 10 20 Z" fill="rgb(255, 255, 255)" stroke="rgb(0, 0, 0)" stroke-width="3px"/><text class="speech-bubble-content property-key" x="54.5" y="-155" alignment-baseline="central" text-anchor="end" font-size="50px" font-family="&quot;Gill Sans&quot;, &quot;Gill Sans MT&quot;, Calibri, sans-serif" xml:space="preserve">username: </text><text class="speech-bubble-content property-key" x="54.5" y="-105" alignment-baseline="central" text-anchor="end" font-size="50px" font-family="&quot;Gill Sans&quot;, &quot;Gill Sans MT&quot;, Calibri, sans-serif" xml:space="preserve">email: </text><text class="speech-bubble-content property-key" x="54.5" y="-55" alignment-baseline="central" text-anchor="end" font-size="50px" font-family="&quot;Gill Sans&quot;, &quot;Gill Sans MT&quot;, Calibri, sans-serif" xml:space="preserve">password: </text><text class="speech-bubble-content property-value" x="54.5" y="-155" alignment-baseline="central" font-size="50px" font-family="&quot;Gill Sans&quot;, &quot;Gill Sans MT&quot;, Calibri, sans-serif">string</text><text class="speech-bubble-content property-value" x="54.5" y="-105" alignment-baseline="central" font-size="50px" font-family="&quot;Gill Sans&quot;, &quot;Gill Sans MT&quot;, Calibri, sans-serif">string</text><text class="speech-bubble-content property-value" x="54.5" y="-55" alignment-baseline="central" font-size="50px" font-family="&quot;Gill Sans&quot;, &quot;Gill Sans MT&quot;, Calibri, sans-serif">string</text></g><g class="speech-bubble node-speech-bubble" transform="translate(-1810.3945810697735,-539.380542983836) "><path class="speech-bubble-outline" transform="scale(-1,-1) " d="M 0 0 L 30 20 L 326 20 A 10 10 0 0 1 336 30 L 336 130 A 10 10 0 0 1 326 140 L 30 140 A 10 10 0 0 1 20 130 L 20 30 Z" fill="rgb(255, 255, 255)" stroke="rgb(0, 0, 0)" stroke-width="3px"/><text class="speech-bubble-content property-key" x="-143" y="-105" alignment-baseline="central" text-anchor="end" font-size="50px" font-family="&quot;Gill Sans&quot;, &quot;Gill Sans MT&quot;, Calibri, sans-serif" xml:space="preserve">content: </text><text class="speech-bubble-content property-value" x="-143" y="-105" alignment-baseline="central" font-size="50px" font-family="&quot;Gill Sans&quot;, &quot;Gill Sans MT&quot;, Calibri, sans-serif">string</text><text class="speech-bubble-content property-key" x="-143" y="-55" alignment-baseline="central" text-anchor="end" font-size="50px" font-family="&quot;Gill Sans&quot;, &quot;Gill Sans MT&quot;, Calibri, sans-serif" xml:space="preserve">time: </text><text class="speech-bubble-content property-value" x="-143" y="-55" alignment-baseline="central" font-size="50px" font-family="&quot;Gill Sans&quot;, &quot;Gill Sans MT&quot;, Calibri, sans-serif">string</text></g><g class="speech-bubble node-speech-bubble" transform="translate(-821.9977416992188,-70.22950921621461) "><path class="speech-bubble-outline" transform="scale(1,1) " d="M 0 0 L -10 20 L -148 20 A 10 10 0 0 0 -158 30 L -158 130 A 10 10 0 0 0 -148 140 L 148 140 A 10 10 0 0 0 158 130 L 158 30 A 10 10 0 0 0 148 20 L 10 20 Z" fill="rgb(255, 255, 255)" stroke="rgb(0, 0, 0)" stroke-width="3px"/><text class="speech-bubble-content property-key" x="35" y="55" alignment-baseline="central" text-anchor="end" font-size="50px" font-family="&quot;Gill Sans&quot;, &quot;Gill Sans MT&quot;, Calibri, sans-serif" xml:space="preserve">content: </text><text class="speech-bubble-content property-value" x="35" y="55" alignment-baseline="central" font-size="50px" font-family="&quot;Gill Sans&quot;, &quot;Gill Sans MT&quot;, Calibri, sans-serif">string</text><text class="speech-bubble-content property-key" x="35" y="105" alignment-baseline="central" text-anchor="end" font-size="50px" font-family="&quot;Gill Sans&quot;, &quot;Gill Sans MT&quot;, Calibri, sans-serif" xml:space="preserve">time: </text><text class="speech-bubble-content property-value" x="35" y="105" alignment-baseline="central" font-size="50px" font-family="&quot;Gill Sans&quot;, &quot;Gill Sans MT&quot;, Calibri, sans-serif">string</text></g><g class="speech-bubble node-speech-bubble" transform="translate(-1140.2764736661782,65.32527956868515) "><path class="speech-bubble-outline" transform="scale(1,1) " d="M 0 0 L 30 20 L 395 20 A 10 10 0 0 1 405 30 L 405 280 A 10 10 0 0 1 395 290 L 30 290 A 10 10 0 0 1 20 280 L 20 30 Z" fill="rgb(255, 255, 255)" stroke="rgb(0, 0, 0)" stroke-width="3px"/><text class="speech-bubble-content property-key" x="282" y="55" alignment-baseline="central" text-anchor="end" font-size="50px" font-family="&quot;Gill Sans&quot;, &quot;Gill Sans MT&quot;, Calibri, sans-serif" xml:space="preserve">title: </text><text class="speech-bubble-content property-key" x="282" y="105" alignment-baseline="central" text-anchor="end" font-size="50px" font-family="&quot;Gill Sans&quot;, &quot;Gill Sans MT&quot;, Calibri, sans-serif" xml:space="preserve">genre: </text><text class="speech-bubble-content property-key" x="282" y="155" alignment-baseline="central" text-anchor="end" font-size="50px" font-family="&quot;Gill Sans&quot;, &quot;Gill Sans MT&quot;, Calibri, sans-serif" xml:space="preserve">description: </text><text class="speech-bubble-content property-key" x="282" y="205" alignment-baseline="central" text-anchor="end" font-size="50px" font-family="&quot;Gill Sans&quot;, &quot;Gill Sans MT&quot;, Calibri, sans-serif" xml:space="preserve">developer: </text><text class="speech-bubble-content property-key" x="282" y="255" alignment-baseline="central" text-anchor="end" font-size="50px" font-family="&quot;Gill Sans&quot;, &quot;Gill Sans MT&quot;, Calibri, sans-serif" xml:space="preserve">publisher: </text><text class="speech-bubble-content property-value" x="282" y="55" alignment-baseline="central" font-size="50px" font-family="&quot;Gill Sans&quot;, &quot;Gill Sans MT&quot;, Calibri, sans-serif">string</text><text class="speech-bubble-content property-value" x="282" y="105" alignment-baseline="central" font-size="50px" font-family="&quot;Gill Sans&quot;, &quot;Gill Sans MT&quot;, Calibri, sans-serif">string</text><text class="speech-bubble-content property-value" x="282" y="155" alignment-baseline="central" font-size="50px" font-family="&quot;Gill Sans&quot;, &quot;Gill Sans MT&quot;, Calibri, sans-serif">string</text><text class="speech-bubble-content property-value" x="282" y="205" alignment-baseline="central" font-size="50px" font-family="&quot;Gill Sans&quot;, &quot;Gill Sans MT&quot;, Calibri, sans-serif">string</text><text class="speech-bubble-content property-value" x="282" y="255" alignment-baseline="central" font-size="50px" font-family="&quot;Gill Sans&quot;, &quot;Gill Sans MT&quot;, Calibri, sans-serif">string</text></g><g class="speech-bubble node-speech-bubble" transform="translate(-1775.8455604412738,73.93327559019956) "><path class="speech-bubble-outline" transform="scale(-1,1) " d="M 0 0 L 30 20 L 326 20 A 10 10 0 0 1 336 30 L 336 180 A 10 10 0 0 1 326 190 L 30 190 A 10 10 0 0 1 20 180 L 20 30 Z" fill="rgb(255, 255, 255)" stroke="rgb(0, 0, 0)" stroke-width="3px"/><text class="speech-bubble-content property-key" x="-143" y="55" alignment-baseline="central" text-anchor="end" font-size="50px" font-family="&quot;Gill Sans&quot;, &quot;Gill Sans MT&quot;, Calibri, sans-serif" xml:space="preserve">score: </text><text class="speech-bubble-content property-key" x="-143" y="105" alignment-baseline="central" text-anchor="end" font-size="50px" font-family="&quot;Gill Sans&quot;, &quot;Gill Sans MT&quot;, Calibri, sans-serif" xml:space="preserve">content: </text><text class="speech-bubble-content property-value" x="-143" y="55" alignment-baseline="central" font-size="50px" font-family="&quot;Gill Sans&quot;, &quot;Gill Sans MT&quot;, Calibri, sans-serif">int</text><text class="speech-bubble-content property-value" x="-143" y="105" alignment-baseline="central" font-size="50px" font-family="&quot;Gill Sans&quot;, &quot;Gill Sans MT&quot;, Calibri, sans-serif">string</text><text class="speech-bubble-content property-key" x="-143" y="155" alignment-baseline="central" text-anchor="end" font-size="50px" font-family="&quot;Gill Sans&quot;, &quot;Gill Sans MT&quot;, Calibri, sans-serif" xml:space="preserve">time: </text><text class="speech-bubble-content property-value" x="-143" y="155" alignment-baseline="central" font-size="50px" font-family="&quot;Gill Sans&quot;, &quot;Gill Sans MT&quot;, Calibri, sans-serif">string</text></g></g><g class="layer overlay"><circle class="node overlay" r="78.00909015790026" stroke="none" fill="rgba(255, 255, 255, 0)" cx="-1200" cy="-436.5"/><circle class="node overlay" r="149.4950591920491" stroke="none" fill="rgba(255, 255, 255, 0)" cx="-1707.5140380859375" cy="-436.5"/><circle class="node overlay" r="127.53348745736938" stroke="none" fill="rgba(255, 255, 255, 0)" cx="-821.9977416992188" cy="-193.76299667358398"/><circle class="node overlay" r="78.00909015790026" stroke="none" fill="rgba(255, 255, 255, 0)" cx="-385.8954162597656" cy="-436.5"/><circle class="node overlay" r="88.46182093403758" stroke="none" fill="rgba(255, 255, 255, 0)" cx="-1200" cy="5.601753234863281"/><circle class="node overlay" r="100.6353656525169" stroke="none" fill="rgba(255, 255, 255, 0)" cx="-1707.5140380859375" cy="5.601753234863281"/><circle class="node ring" r="83.00909015790026" fill="none" stroke="rgba(255, 255, 255, 0)" stroke-width="10px" cx="-1200" cy="-436.5"/><circle class="node ring" r="154.4950591920491" fill="none" stroke="rgba(255, 255, 255, 0)" stroke-width="10px" cx="-1707.5140380859375" cy="-436.5"/><circle class="node ring" r="132.53348745736938" fill="none" stroke="rgba(255, 255, 255, 0)" stroke-width="10px" cx="-821.9977416992188" cy="-193.76299667358398"/><circle class="node ring" r="83.00909015790026" fill="none" stroke="rgba(255, 255, 255, 0)" stroke-width="10px" cx="-385.8954162597656" cy="-436.5"/><circle class="node ring" r="93.46182093403758" fill="none" stroke="rgba(255, 255, 255, 0)" stroke-width="10px" cx="-1200" cy="5.601753234863281"/><circle class="node ring" r="105.6353656525169" fill="none" stroke="rgba(255, 255, 255, 0)" stroke-width="10px" cx="-1707.5140380859375" cy="5.601753234863281"/><path class="relationship overlay" fill="rgba(255, 255, 255, 0)" stroke="rgba(255, 255, 255, 0)" stroke-width="10px" transform="translate(-1200,-436.5) rotate(90)" d="M 89.00909015790026 4 L 310.6399323008257 4 L 310.6399323008257 16 L 342.6399323008257 0 L 310.6399323008257 -16 L 310.6399323008257 -4 L 89.00909015790026 -4 Z"/><path class="relationship overlay" fill="rgba(255, 255, 255, 0)" stroke="rgba(255, 255, 255, 0)" stroke-width="10px" transform="translate(-1200,-436.5) rotate(138.9404747060561)" d="M 87.07726038220098,-18.872436383985743 L 88.41906504204947,-10.985766601700647 A 1423.0131473778779 1423.0131473778779 0 0 1 530.3368091831591,-16.555747748701325 L 528.6229076454808,-4.678772480597747 L 562.5800437439947,-15.94433540426045 L 533.1933117459562,-36.35070652887396 L 531.479410208278,-24.473731260770375 A 1431.0131473778779 1431.0131473778779 0 0 0 87.07726038220098,-18.872436383985743"/><path class="relationship overlay" fill="rgba(255, 255, 255, 0)" stroke="rgba(255, 255, 255, 0)" stroke-width="10px" transform="translate(-1200,-436.5) rotate(138.9404747060561)" d="M 87.07726038220098,18.872436383985743 L 88.41906504204947,10.985766601700647 A 1423.0131473778779 1423.0131473778779 0 0 0 530.3368091831591,16.555747748701325 L 528.6229076454808,4.678772480597747 L 562.5800437439947,15.94433540426045 L 533.1933117459562,36.35070652887396 L 531.479410208278,24.473731260770375 A 1431.0131473778779 1431.0131473778779 0 0 1 87.07726038220098,18.872436383985743"/><path class="relationship overlay" fill="rgba(255, 255, 255, 0)" stroke="rgba(255, 255, 255, 0)" stroke-width="10px" transform="translate(-1200,-436.5) rotate(180)" d="M 89.00909015790026 4 L 315.0189788938884 4 L 315.0189788938884 16 L 347.0189788938884 0 L 315.0189788938884 -16 L 315.0189788938884 -4 L 89.00909015790026 -4 Z"/><path class="relationship overlay" fill="rgba(255, 255, 255, 0)" stroke="rgba(255, 255, 255, 0)" stroke-width="10px" transform="translate(-1707.5140380859375,-436.5) rotate(90)" d="M 160.4950591920491 4 L 298.4663875823464 4 L 298.4663875823464 16 L 330.4663875823464 0 L 298.4663875823464 -16 L 298.4663875823464 -4 L 160.4950591920491 -4 Z"/><path class="relationship overlay" fill="rgba(255, 255, 255, 0)" stroke="rgba(255, 255, 255, 0)" stroke-width="10px" transform="translate(-1707.5140380859375,5.601753234863281) rotate(0)" d="M 111.6353656525169 4 L 376.0522171518999 4 L 376.0522171518999 16 L 408.0522171518999 0 L 376.0522171518999 -16 L 376.0522171518999 -4 L 111.6353656525169 -4 Z"/><path class="relationship overlay" fill="rgba(255, 255, 255, 0)" stroke="rgba(255, 255, 255, 0)" stroke-width="10px" transform="translate(-1200,-436.5) rotate(32.7068546780149)" d="M 89.00909015790026 4 L 278.69580818615725 4 L 278.69580818615725 16 L 310.69580818615725 0 L 278.69580818615725 -16 L 278.69580818615725 -4 L 89.00909015790026 -4 Z"/><path class="relationship overlay" fill="rgba(255, 255, 255, 0)" stroke="rgba(255, 255, 255, 0)" stroke-width="10px" transform="translate(-821.9977416992188,-193.76299667358398) rotate(-29.10055798901717)" d="M 138.53348745736938 4 L 378.0966010915456 4 L 378.0966010915456 16 L 410.0966010915456 0 L 378.0966010915456 -16 L 378.0966010915456 -4 L 138.53348745736938 -4 Z"/><path class="relationship overlay" fill="rgba(255, 255, 255, 0)" stroke="rgba(255, 255, 255, 0)" stroke-width="10px" transform="translate(-1200,-436.5) rotate(0)" d="M 89.00909015790026 4 L 693.0954935823341 4 L 693.0954935823341 16 L 725.0954935823341 0 L 693.0954935823341 -16 L 693.0954935823341 -4 L 89.00909015790026 -4 Z"/></g></svg>